<?xml version="1.0" encoding="utf-8"?>
<!-- Generator: Adobe Illustrator 21.1.0, SVG Export Plug-In . SVG Version: 6.00 Build 0)  -->
<svg version="1.1" xmlns="http://www.w3.org/2000/svg" xmlns:xlink="http://www.w3.org/1999/xlink" x="0px" y="0px"
	 viewBox="0 0 250 75.6" style="enable-background:new 0 0 250 75.6;" xml:space="preserve">
<style type="text/css">
	.st0{fill:#0A1A28;}
	.st1{fill:#53868B;}
	.st2{fill:#74A4A3;}
	.st3{fill:#A3C1BA;}
	.st4{fill:#F2EBD2;}
	.st5{fill:#2549C9;}
	.st6{fill:#3F85F4;}
	.st7{fill:#379EDD;}
	.st8{fill:#6162F7;}
	.st9{fill:#6187E5;}
	.st10{fill:#1B264F;}
	.st11{fill:#36A0E2;}
	.st12{fill:#FFFFFF;}
	.st13{fill:#D2D5DD;}
	.st14{fill:#274690;}
	.st15{fill:#3D5473;}
	.st16{fill:#80A2BF;}
	.st17{fill:#C4E1F2;}
	.st18{fill:#F2EEAC;}
	.st19{fill:#D9B18F;}
	.st20{fill:#0583F2;}
	.st21{fill:#29A5F2;}
	.st22{fill:#59230F;}
	.st23{fill:#F26E50;}
	.st24{fill:#BF3F3F;}
	.st25{fill:#4A72FF;}
	.st26{fill:#052944;}
	.st27{fill:#F7F8F8;}
	.st28{fill:#EDEEF0;}
	.st29{fill:none;stroke:#379EDD;stroke-width:0.2385;stroke-miterlimit:10;}
	.st30{fill:none;stroke:#FFFFFF;stroke-width:0.7154;stroke-miterlimit:10;}
	.st31{fill:none;stroke:#FFFFFF;stroke-width:0.7154;stroke-miterlimit:10;stroke-dasharray:0.9524,0.9524;}
	.st32{fill:#0097D3;}
</style>
<g id="Capa_1">
	<rect id="XMLID_1_" x="0.7" width="249.3" height="75.6"/>
</g>
<g id="Capa_2">
	<g id="XMLID_452_">
		<g id="XMLID_458_">
			<polygon id="XMLID_459_" class="st26" points="142.4,13 140.7,11.3 141.9,9.4 144.3,11.7 			"/>
		</g>
		<path id="XMLID_457_" class="st27" d="M142.1,13.4l-2-1.9l-2.9,1l-1.8,5l0.1,0.1l2.1-2.1c-0.1-0.3-0.1-0.6,0.2-0.9
			c0.3-0.3,0.8-0.3,1.2,0c0.3,0.3,0.3,0.8,0,1.2c-0.2,0.2-0.6,0.3-0.9,0.2l-2.1,2.2l0.1,0.1l4.9-1.9L142.1,13.4z"/>
		<path id="XMLID_456_" class="st28" d="M138,14.6c0.3-0.3,0.8-0.3,1.2,0c0.3,0.3,0.3,0.8,0,1.2c-0.2,0.2-0.6,0.3-0.9,0.2l-2.1,2.1
			l0.1,0.1l4.9-1.9l0.9-2.9l-2-1.9"/>
		<path id="XMLID_454_" class="st2" d="M143,13.5c-0.3,0.3-0.7,0.3-1,0l-1.9-1.9c-0.3-0.3-0.3-0.7,0-1l0,0c0.3-0.3,0.7-0.3,1,0
			l1.9,1.9C143.3,12.8,143.3,13.3,143,13.5L143,13.5z"/>
		<path id="XMLID_453_" class="st1" d="M143,13.5L143,13.5c-0.3,0.3-0.7,0.3-1,0l-1.9-1.9c-0.3-0.3-0.3-0.7,0-1l0,0"/>
	</g>
	<rect id="XMLID_34_" x="44.3" y="25.8" class="st29" width="2.6" height="2.6"/>
	<rect id="XMLID_36_" x="202.4" y="25.8" class="st29" width="2.6" height="2.6"/>
	<g>
		<g id="XMLID_28_">
			<g>
				<path class="st30" d="M45.6,24.6c0.2,0,0.3,0,0.5,0"/>
				<path class="st31" d="M47,24.6c31.7,0,77.5,0,77.5,0s50.1,0,78.2,0"/>
				<path class="st30" d="M203.2,24.6c0.2,0,0.3,0,0.5,0"/>
			</g>
		</g>
		<g id="XMLID_42_">
			
				<rect id="XMLID_41_" x="68" y="15.3" transform="matrix(0.9491 -0.3151 0.3151 0.9491 -1.6875 22.6564)" class="st29" width="2.6" height="2.6"/>
			<line id="XMLID_37_" class="st29" x1="69.2" y1="16.5" x2="46.6" y2="24.1"/>
		</g>
		<g id="XMLID_2_">
			
				<rect id="XMLID_5_" x="179.9" y="15.3" transform="matrix(-0.9491 -0.3151 0.3151 -0.9491 347.855 89.3275)" class="st29" width="2.6" height="2.6"/>
			<line id="XMLID_4_" class="st29" x1="181.1" y1="16.5" x2="203.8" y2="24.1"/>
		</g>
		<circle id="XMLID_47_" class="st32" cx="130.7" cy="23.4" r="10"/>
	</g>
	<g>
		<path class="st12" d="M31.2,39.3h9.2v2h-7v3.4h6.2v2h-6.2v5h-2.2V39.3z"/>
		<path class="st12" d="M46.1,39.3h9.2v1.9h-7v3.2h6.2v1.9h-6.2v3.3h7.1v1.9h-9.3V39.3z"/>
		<path class="st12" d="M61.2,39.3h2.2v10.4h6.5v2h-8.7V39.3z"/>
		<path class="st12" d="M75.6,39.3h2.2v12.4h-2.2V39.3z"/>
		<path class="st12" d="M84.4,39.3h4.9c2.9,0,4.7,1.6,4.7,4.1v0c0,2.8-2.2,4.2-5,4.2h-2.5v4h-2.2V39.3z M89.1,45.7
			c1.6,0,2.7-0.9,2.7-2.2v0c0-1.5-1-2.2-2.7-2.2h-2.5v4.5H89.1z"/>
		<path class="st12" d="M99.6,39.3h9.2v1.9h-7v3.2h6.2v1.9h-6.2v3.3h7.1v1.9h-9.3V39.3z"/>
		<path class="st12" d="M122.5,49.9l1.3-1.6c1.2,1,2.4,1.6,3.9,1.6c1.3,0,2.2-0.6,2.2-1.6v0c0-0.9-0.5-1.4-2.8-1.9
			c-2.6-0.6-4.1-1.4-4.1-3.7v0c0-2.1,1.8-3.6,4.2-3.6c1.8,0,3.2,0.5,4.5,1.6l-1.2,1.6c-1.1-0.8-2.2-1.3-3.4-1.3c-1.3,0-2,0.7-2,1.5
			v0c0,1,0.6,1.4,2.9,1.9c2.6,0.6,4,1.6,4,3.6v0c0,2.3-1.8,3.7-4.4,3.7C125.8,51.9,124,51.2,122.5,49.9z"/>
		<path class="st12" d="M138.1,39.3h2.2v12.4h-2.2V39.3z"/>
		<path class="st12" d="M146.9,39.3h2.2v10.4h6.5v2h-8.7V39.3z"/>
		<path class="st12" d="M158.1,39.3h2.4l3.7,9.5l3.7-9.5h2.4l-5.2,12.5h-1.9L158.1,39.3z"/>
		<path class="st12" d="M175.7,39.3h9.2v1.9h-7v3.2h6.2v1.9h-6.2v3.3h7.1v1.9h-9.3V39.3z"/>
		<path class="st12" d="M190.9,39.3h5.5c1.6,0,2.8,0.5,3.6,1.2c0.7,0.7,1,1.6,1,2.7v0c0,2-1.2,3.3-3,3.8l3.3,4.7h-2.6l-3-4.3H193
			v4.3h-2.2V39.3z M196.2,45.4c1.6,0,2.5-0.8,2.5-2.1v0c0-1.3-1-2.1-2.6-2.1H193v4.2H196.2z"/>
		<path class="st12" d="M211.4,39.2h2l5.5,12.5h-2.3l-1.3-3h-5.9l-1.3,3h-2.2L211.4,39.2z M214.5,46.8l-2.1-5l-2.1,5H214.5z"/>
	</g>
	<g>
		<path class="st12" d="M42.5,58.4h1c0.9,0,1.5,0.6,1.5,1.4v0c0,0.8-0.6,1.4-1.5,1.4h-1V58.4z M43.5,60.9c0.7,0,1.2-0.5,1.2-1.1v0
			c0-0.6-0.5-1.1-1.2-1.1h-0.7v2.2H43.5z"/>
		<path class="st12" d="M46.4,58.4h0.3v2.8h-0.3V58.4z"/>
		<path class="st12" d="M48.1,60.8l0.2-0.2c0.3,0.3,0.6,0.4,1,0.4c0.4,0,0.6-0.2,0.6-0.5v0c0-0.3-0.1-0.4-0.7-0.5
			c-0.6-0.1-0.9-0.3-0.9-0.8v0c0-0.4,0.4-0.8,0.9-0.8c0.4,0,0.7,0.1,1,0.3L49.9,59c-0.3-0.2-0.5-0.3-0.8-0.3c-0.4,0-0.6,0.2-0.6,0.5
			v0c0,0.3,0.1,0.4,0.8,0.5c0.6,0.1,0.9,0.4,0.9,0.8v0c0,0.5-0.4,0.8-1,0.8C48.8,61.2,48.5,61.1,48.1,60.8z"/>
		<path class="st12" d="M51.6,58.4h2v0.3h-1.7v1h1.5v0.3h-1.5v1h1.7v0.3h-2V58.4z"/>
		<path class="st12" d="M55,58.4h0.3l1.8,2.2v-2.2h0.3v2.8h-0.3l-1.8-2.3v2.3H55V58.4z M55.6,58.1c0.1-0.3,0.2-0.4,0.4-0.4
			c0.2,0,0.4,0.2,0.5,0.2c0.1,0,0.1-0.1,0.2-0.2l0.2,0.1c-0.1,0.3-0.2,0.4-0.4,0.4c-0.2,0-0.4-0.2-0.5-0.2c-0.1,0-0.1,0.1-0.2,0.2
			L55.6,58.1z"/>
		<path class="st12" d="M60,58.4h0.3l1.3,2.8h-0.3l-0.3-0.7h-1.5L59,61.2h-0.3L60,58.4z M60.8,60.2l-0.6-1.4l-0.6,1.4H60.8z"/>
		<path class="st12" d="M62.9,58.4h1c0.9,0,1.5,0.6,1.5,1.4v0c0,0.8-0.6,1.4-1.5,1.4h-1V58.4z M63.8,60.9c0.7,0,1.2-0.5,1.2-1.1v0
			c0-0.6-0.5-1.1-1.2-1.1h-0.7v2.2H63.8z"/>
		<path class="st12" d="M66.6,59.8L66.6,59.8c0-0.8,0.6-1.5,1.4-1.5s1.4,0.7,1.4,1.4v0c0,0.8-0.6,1.4-1.4,1.4
			C67.2,61.3,66.6,60.6,66.6,59.8z M69.1,59.8L69.1,59.8c0-0.6-0.5-1.2-1.1-1.2s-1.1,0.5-1.1,1.1v0c0,0.6,0.5,1.2,1.1,1.2
			S69.1,60.4,69.1,59.8z"/>
		<path class="st12" d="M70.9,58.4h1.2c0.3,0,0.6,0.1,0.8,0.3c0.1,0.1,0.2,0.3,0.2,0.6v0c0,0.5-0.3,0.7-0.8,0.8l0.9,1.1h-0.4
			L72,60.1h-0.8v1.1h-0.3V58.4z M72.1,59.8c0.4,0,0.7-0.2,0.7-0.6v0c0-0.3-0.3-0.6-0.7-0.6h-0.9v1.1H72.1z"/>
		<path class="st12" d="M76.3,59.8L76.3,59.8c0-0.8,0.6-1.5,1.4-1.5c0.5,0,0.8,0.1,1,0.4L78.6,59c-0.2-0.2-0.5-0.3-0.9-0.3
			c-0.6,0-1.1,0.5-1.1,1.1v0c0,0.7,0.4,1.2,1.1,1.2c0.3,0,0.6-0.1,0.8-0.3V60h-0.9v-0.3h1.2v1.1c-0.3,0.2-0.7,0.4-1.1,0.4
			C76.9,61.3,76.3,60.6,76.3,59.8z"/>
		<path class="st12" d="M80.4,58.4h1.2c0.3,0,0.6,0.1,0.8,0.3c0.1,0.1,0.2,0.3,0.2,0.6v0c0,0.5-0.3,0.7-0.8,0.8l0.9,1.1h-0.4
			l-0.8-1.1h-0.8v1.1h-0.3V58.4z M81.5,59.8c0.4,0,0.7-0.2,0.7-0.6v0c0-0.3-0.3-0.6-0.7-0.6h-0.9v1.1H81.5z"/>
		<path class="st12" d="M85,58.4h0.3l1.3,2.8h-0.3l-0.3-0.7h-1.5l-0.3,0.7h-0.3L85,58.4z M85.8,60.2l-0.6-1.4l-0.6,1.4H85.8z
			 M85.4,57.6l0.3,0.1l-0.5,0.4H85L85.4,57.6z"/>
		<path class="st12" d="M87.9,58.4h2v0.3h-1.7v1h1.5V60h-1.5v1.2h-0.3V58.4z"/>
		<path class="st12" d="M91.3,58.4h0.3v2.8h-0.3V58.4z"/>
		<path class="st12" d="M93.1,59.8L93.1,59.8c0-0.8,0.6-1.5,1.4-1.5c0.5,0,0.8,0.2,1.1,0.4L95.3,59c-0.2-0.2-0.5-0.4-0.9-0.4
			c-0.6,0-1.1,0.5-1.1,1.1v0c0,0.6,0.5,1.2,1.1,1.2c0.4,0,0.6-0.1,0.9-0.4l0.2,0.2c-0.3,0.3-0.6,0.5-1.1,0.5
			C93.7,61.3,93.1,60.6,93.1,59.8z"/>
		<path class="st12" d="M96.7,59.8L96.7,59.8c0-0.8,0.6-1.5,1.4-1.5s1.4,0.7,1.4,1.4v0c0,0.8-0.6,1.4-1.4,1.4
			C97.2,61.3,96.7,60.6,96.7,59.8z M99.2,59.8L99.2,59.8c0-0.6-0.5-1.2-1.1-1.2S97,59.2,97,59.8v0c0,0.6,0.5,1.2,1.1,1.2
			S99.2,60.4,99.2,59.8z"/>
		<path class="st12" d="M102.8,59.8h1.1v0.3h-1.1V59.8z"/>
		<path class="st12" d="M107.2,58.4h0.3l1,1.5l1-1.5h0.3v2.8h-0.3v-2.3l-1,1.5h0l-1-1.5v2.3h-0.3V58.4z"/>
		<path class="st12" d="M111.3,59.8L111.3,59.8c0-0.8,0.6-1.5,1.4-1.5s1.4,0.7,1.4,1.4v0c0,0.8-0.6,1.4-1.4,1.4
			C111.9,61.3,111.3,60.6,111.3,59.8z M113.8,59.8L113.8,59.8c0-0.6-0.5-1.2-1.1-1.2s-1.1,0.5-1.1,1.1v0c0,0.6,0.5,1.2,1.1,1.2
			S113.8,60.4,113.8,59.8z"/>
		<path class="st12" d="M116.1,58.7h-0.9v-0.3h2.2v0.3h-0.9v2.5h-0.3V58.7z"/>
		<path class="st12" d="M118.8,58.4h0.3v2.8h-0.3V58.4z"/>
		<path class="st12" d="M120.5,59.8L120.5,59.8c0-0.8,0.6-1.5,1.4-1.5c0.9,0,1.4,0.7,1.4,1.4v0c0,0.8-0.6,1.4-1.4,1.4
			C121.1,61.3,120.5,60.6,120.5,59.8z M123.1,59.8L123.1,59.8c0-0.6-0.5-1.2-1.1-1.2s-1.1,0.5-1.1,1.1v0c0,0.6,0.5,1.2,1.1,1.2
			C122.6,61,123.1,60.4,123.1,59.8z"/>
		<path class="st12" d="M124.8,58.4h0.3l1.8,2.2v-2.2h0.3v2.8h-0.3l-1.8-2.3v2.3h-0.3V58.4z"/>
		<path class="st12" d="M130.7,58.4h1c0.9,0,1.5,0.6,1.5,1.4v0c0,0.8-0.6,1.4-1.5,1.4h-1V58.4z M131.6,60.9c0.7,0,1.2-0.5,1.2-1.1v0
			c0-0.6-0.5-1.1-1.2-1.1H131v2.2H131.6z"/>
		<path class="st12" d="M134.5,58.4h2v0.3h-1.7v1h1.5v0.3h-1.5v1h1.7v0.3h-2V58.4z"/>
		<path class="st12" d="M137.8,60.8l0.2-0.2c0.3,0.3,0.6,0.4,1,0.4c0.4,0,0.6-0.2,0.6-0.5v0c0-0.3-0.1-0.4-0.7-0.5
			c-0.6-0.1-0.9-0.3-0.9-0.8v0c0-0.4,0.4-0.8,0.9-0.8c0.4,0,0.7,0.1,1,0.3l-0.2,0.2c-0.3-0.2-0.5-0.3-0.8-0.3
			c-0.4,0-0.6,0.2-0.6,0.5v0c0,0.3,0.1,0.4,0.8,0.5c0.6,0.1,0.9,0.4,0.9,0.8v0c0,0.5-0.4,0.8-1,0.8
			C138.5,61.2,138.1,61.1,137.8,60.8z"/>
		<path class="st12" d="M141.3,58.4h0.3v2.8h-0.3V58.4z"/>
		<path class="st12" d="M143.1,59.8L143.1,59.8c0-0.8,0.6-1.5,1.4-1.5c0.5,0,0.8,0.1,1,0.4l-0.2,0.2c-0.2-0.2-0.5-0.3-0.9-0.3
			c-0.6,0-1.1,0.5-1.1,1.1v0c0,0.7,0.4,1.2,1.1,1.2c0.3,0,0.6-0.1,0.8-0.3V60h-0.9v-0.3h1.2v1.1c-0.3,0.2-0.7,0.4-1.1,0.4
			C143.6,61.3,143.1,60.6,143.1,59.8z"/>
		<path class="st12" d="M147.1,58.4h0.3l1.8,2.2v-2.2h0.3v2.8h-0.3l-1.8-2.3v2.3h-0.3V58.4z"/>
		<path class="st12" d="M151,58.4h2v0.3h-1.7v1h1.5v0.3h-1.5v1h1.7v0.3h-2V58.4z"/>
		<path class="st12" d="M154.4,58.4h1.2c0.3,0,0.6,0.1,0.8,0.3c0.1,0.1,0.2,0.3,0.2,0.6v0c0,0.5-0.3,0.7-0.8,0.8l0.9,1.1h-0.4
			l-0.8-1.1h-0.8v1.1h-0.3V58.4z M155.6,59.8c0.4,0,0.7-0.2,0.7-0.6v0c0-0.3-0.3-0.6-0.7-0.6h-0.9v1.1H155.6z"/>
		<path class="st12" d="M159.9,59.8h1.1v0.3h-1.1V59.8z"/>
		<path class="st12" d="M164.3,58.4h1c0.9,0,1.5,0.6,1.5,1.4v0c0,0.8-0.6,1.4-1.5,1.4h-1V58.4z M165.3,60.9c0.7,0,1.2-0.5,1.2-1.1v0
			c0-0.6-0.5-1.1-1.2-1.1h-0.7v2.2H165.3z"/>
		<path class="st12" d="M168.2,58.4h0.3v2.8h-0.3V58.4z"/>
		<path class="st12" d="M169.9,60.8l0.2-0.2c0.3,0.3,0.6,0.4,1,0.4c0.4,0,0.6-0.2,0.6-0.5v0c0-0.3-0.1-0.4-0.7-0.5
			c-0.6-0.1-0.9-0.3-0.9-0.8v0c0-0.4,0.4-0.8,0.9-0.8c0.4,0,0.7,0.1,1,0.3l-0.2,0.2c-0.3-0.2-0.5-0.3-0.8-0.3
			c-0.4,0-0.6,0.2-0.6,0.5v0c0,0.3,0.1,0.4,0.8,0.5c0.6,0.1,0.9,0.4,0.9,0.8v0c0,0.5-0.4,0.8-1,0.8
			C170.6,61.2,170.3,61.1,169.9,60.8z"/>
		<path class="st12" d="M173.4,58.4h2v0.3h-1.7v1h1.5v0.3h-1.5v1h1.7v0.3h-2V58.4z"/>
		<path class="st12" d="M176.8,58.4h0.3l1.8,2.2v-2.2h0.3v2.8H179l-1.8-2.3v2.3h-0.3V58.4z M177.4,58.1c0.1-0.3,0.2-0.4,0.4-0.4
			c0.2,0,0.4,0.2,0.5,0.2c0.1,0,0.1-0.1,0.2-0.2l0.2,0.1c-0.1,0.3-0.2,0.4-0.4,0.4c-0.2,0-0.4-0.2-0.5-0.2c-0.1,0-0.1,0.1-0.2,0.2
			L177.4,58.1z"/>
		<path class="st12" d="M181.8,58.4h0.3l1.3,2.8H183l-0.3-0.7h-1.5l-0.3,0.7h-0.3L181.8,58.4z M182.6,60.2l-0.6-1.4l-0.6,1.4H182.6z
			"/>
		<path class="st12" d="M184.7,58.4h1c0.9,0,1.5,0.6,1.5,1.4v0c0,0.8-0.6,1.4-1.5,1.4h-1V58.4z M185.6,60.9c0.7,0,1.2-0.5,1.2-1.1v0
			c0-0.6-0.5-1.1-1.2-1.1H185v2.2H185.6z"/>
		<path class="st12" d="M188.4,59.8L188.4,59.8c0-0.8,0.6-1.5,1.4-1.5s1.4,0.7,1.4,1.4v0c0,0.8-0.6,1.4-1.4,1.4
			S188.4,60.6,188.4,59.8z M190.9,59.8L190.9,59.8c0-0.6-0.5-1.2-1.1-1.2s-1.1,0.5-1.1,1.1v0c0,0.6,0.5,1.2,1.1,1.2
			S190.9,60.4,190.9,59.8z"/>
		<path class="st12" d="M192.7,58.4h1.2c0.3,0,0.6,0.1,0.8,0.3c0.1,0.1,0.2,0.3,0.2,0.6v0c0,0.5-0.3,0.7-0.8,0.8l0.9,1.1h-0.4
			l-0.8-1.1H193v1.1h-0.3V58.4z M193.9,59.8c0.4,0,0.7-0.2,0.7-0.6v0c0-0.3-0.3-0.6-0.7-0.6H193v1.1H193.9z"/>
		<path class="st12" d="M198.1,58.4h0.3l0.8,2.3l0.8-2.3h0.3l0.8,2.3l0.8-2.3h0.3l-1,2.8h-0.3l-0.8-2.3l-0.8,2.3h-0.3L198.1,58.4z"
			/>
		<path class="st12" d="M203.4,58.4h2v0.3h-1.7v1h1.5v0.3h-1.5v1h1.7v0.3h-2V58.4z"/>
		<path class="st12" d="M206.9,58.4h1.2c0.3,0,0.6,0.1,0.7,0.2c0.1,0.1,0.2,0.3,0.2,0.4v0c0,0.4-0.2,0.6-0.4,0.6
			c0.3,0.1,0.6,0.3,0.6,0.7v0c0,0.5-0.4,0.8-1,0.8h-1.2V58.4z M208,59.7c0.4,0,0.6-0.2,0.6-0.5v0c0-0.3-0.2-0.5-0.6-0.5h-0.9v1H208z
			 M208.1,60.9c0.4,0,0.7-0.2,0.7-0.5v0c0-0.3-0.3-0.5-0.7-0.5h-0.9v1H208.1z"/>
	</g>
</g>
</svg>
